<svg xmlns="http://www.w3.org/2000/svg" xmlns:xlink="http://www.w3.org/1999/xlink" fill="none" viewBox="0 0 55 36">
  <path fill="#BFCCF3" d="m9.407 31.659 6.15-16.822H2.618C.908 14.928-.53 17.38.19 19.74l4.333 12.642c3.047 2.988 4.606-.162 4.882-.719z"/>
  <path fill="url(#a)" d="M54.63 4.614c-3.886 10.892-6.061 17.041-9.947 27.933-.29.812-2.897 3.296-5.067-.946l-4.522-12.455s-1.175-4.139-5.426-4.32h-14.11l4.25-11.565S21.257.1 24.875.01h26.409c1.628-.18 4.25 1.806 3.346 4.603z" opacity=".8"/>
  <path stroke="#fff" stroke-linecap="round" stroke-linejoin="round" stroke-width="2.171" d="m46.109 7.236-7.505 9.96-4.028-4.523-5.718 7.588m17.25-13.025-4.157.585m4.158-.585.584 4.158"/>
  <path fill="#315BD8" d="m9.327 31.84 6.23-17.006h14.835c.363 0 3.594.724 4.591 3.8l4.805 13.296c1.994 3.075 4.895.633 4.895.633C43.414 35.367 40.603 36 40.06 36H9.055c-3.626-.362-4.532-3.618-4.532-3.618s2.629 2.894 4.804-.543z"/>
  <defs>
    <linearGradient id="a" x1="54.814" x2="49.112" y1="0" y2="38.926" gradientUnits="userSpaceOnUse">
      <stop stop-color="#A0B4ED"/>
      <stop offset="1" stop-color="#315BD8"/>
    </linearGradient>
  </defs>
</svg>
