<svg xmlns="http://www.w3.org/2000/svg" xmlns:xlink="http://www.w3.org/1999/xlink" fill="none" viewBox="0 0 1280 1364">
  <path fill="url(#a)" fill-opacity=".02" d="M13.895 850.501h-2.527v310.619h2.527z"/>
  <path fill="url(#b)" fill-opacity=".02" d="M1268.63 0h-2.53v568.617h2.53z"/>
  <path fill="url(#c)" fill-opacity=".02" d="M1238.76 318.282h-2.53v162.823h2.53z"/>
  <path fill="url(#d)" fill-opacity=".02" d="M1208.88 387.049h-2.53v152.799h2.53z"/>
  <path fill="url(#e)" fill-opacity=".02" d="M1179 330.957h-2.52v268.026h2.52z"/>
  <path fill="url(#f)" fill-opacity=".02" d="M1149.13 396.365h-2.53v231.711h2.53z"/>
  <path fill="url(#g)" fill-opacity=".02" d="M1119.26 544.066h-2.53v305.607h2.53z"/>
  <path fill="url(#h)" fill-opacity=".02" d="M1089.38 579.816h-2.53v220.43h2.53z"/>
  <path fill="url(#i)" fill-opacity=".02" d="M1059.51 342.419h-2.53v533.552h2.53z"/>
  <path fill="url(#j)" fill-opacity=".02" d="M1029.63 322.853h-2.53v379.503h2.53z"/>
  <path fill="url(#k)" fill-opacity=".02" d="M999.755 382.462h-2.527v145.284h2.527z"/>
  <path fill="url(#l)" fill-opacity=".02" d="M969.883 331.634h-2.526v202.897h2.526z"/>
  <path fill="url(#m)" fill-opacity=".02" d="M940.007 303.265h-2.527v284.308h2.527z"/>
  <path fill="url(#n)" fill-opacity=".02" d="M910.131 447.283h-2.527v180.356h2.527z"/>
  <path fill="url(#o)" fill-opacity=".02" d="M880.259 359.153h-2.527v315.623h2.527z"/>
  <path fill="url(#p)" fill-opacity=".02" d="M850.383 455.763h-2.527v93.936h2.527z"/>
  <path fill="url(#q)" fill-opacity=".02" d="M820.507 392.659h-2.527v129.627h2.527z"/>
  <path fill="url(#r)" fill-opacity=".02" d="M790.635 308.205h-2.527v259.26h2.527z"/>
  <path fill="url(#s)" fill-opacity=".02" d="M760.759 271.483h-2.527v240.47h2.527z"/>
  <path fill="url(#t)" fill-opacity=".02" d="M730.887 287.991h-2.526v278.051h2.526z"/>
  <path fill="url(#u)" fill-opacity=".02" d="M701.011 202.935h-2.527v345.68h2.527z"/>
  <path fill="url(#v)" fill-opacity=".02" d="M671.135 266.829h-2.527v286.5h2.527z"/>
  <path fill="url(#w)" fill-opacity=".02" d="M641.263 414.146h-2.526v157.815h2.526z"/>
  <path fill="url(#x)" fill-opacity=".02" d="M611.387 337.946h-2.527v231.086h2.527z"/>
  <path fill="url(#y)" fill-opacity=".02" d="M581.511 300.403h-2.527v405.801h2.527z"/>
  <path fill="url(#z)" fill-opacity=".02" d="M551.639 284.007h-2.527v616.215h2.527z"/>
  <path fill="url(#A)" fill-opacity=".02" d="M521.763 367.242h-2.527v864.198h2.527z"/>
  <path fill="url(#B)" fill-opacity=".02" d="M491.887 743.777h-2.527v345.683h2.527z"/>
  <path fill="url(#C)" fill-opacity=".02" d="M462.015 654.51h-2.527v405.8h2.527z"/>
  <path fill="url(#D)" fill-opacity=".02" d="M432.139 585.449h-2.527v371.987h2.527z"/>
  <path fill="url(#E)" fill-opacity=".02" d="M402.263 593.026h-2.527v405.801h2.527z"/>
  <path fill="url(#F)" fill-opacity=".02" d="M372.391 584.787h-2.527v177.848h2.527z"/>
  <path fill="url(#G)" fill-opacity=".02" d="M342.515 536.15h-2.527v379.496h2.527z"/>
  <path fill="url(#H)" fill-opacity=".02" d="M312.638 729.031h-2.526v169.082h2.526z"/>
  <path fill="url(#I)" fill-opacity=".02" d="M282.767 702.672h-2.527v323.138h2.527z"/>
  <path fill="url(#J)" fill-opacity=".02" d="M252.891 678.422h-2.527v480.948h2.527z"/>
  <path fill="url(#K)" fill-opacity=".02" d="M223.014 850.501h-2.526v310.619h2.526z"/>
  <path fill="url(#L)" fill-opacity=".02" d="M193.143 977.8h-2.527v115.23h2.527z"/>
  <path fill="url(#M)" fill-opacity=".02" d="M163.267 672.269h-2.527v691.371h2.527z"/>
  <path fill="url(#N)" fill-opacity=".02" d="M133.39 852.399h-2.526v235.471h2.526z"/>
  <path fill="url(#O)" fill-opacity=".02" d="M103.519 794.635h-2.527v470.935h2.527z"/>
  <path fill="url(#P)" fill-opacity=".02" d="M73.642 839.95h-2.526v475.94h2.526z"/>
  <path fill="url(#Q)" fill-opacity=".02" d="M43.771 826.213h-2.527v310.617h2.527z"/>
  <path fill="url(#R)" fill-opacity=".02" d="M25.268 958.746H0v94.124h25.268z"/>
  <path fill="url(#S)" fill-opacity=".02" d="M1280 198.16h-25.27v172.313H1280z"/>
  <path fill="url(#T)" fill-opacity=".02" d="M1250.12 375.021h-25.26v49.337h25.26z"/>
  <path fill="url(#U)" fill-opacity=".02" d="M1220.25 440.302h-25.27v46.301h25.27z"/>
  <path fill="url(#V)" fill-opacity=".02" d="M1190.38 424.358h-25.27v81.224h25.27z"/>
  <path fill="url(#W)" fill-opacity=".02" d="M1160.5 477.114h-25.27v70.213h25.27z"/>
  <path fill="url(#X)" fill-opacity=".02" d="M1130.63 650.564h-25.27v92.611h25.27z"/>
  <path fill="url(#Y)" fill-opacity=".02" d="M1100.75 656.634h-25.27v66.801h25.27z"/>
  <path fill="url(#Z)" fill-opacity=".02" d="M1070.88 528.356h-25.27v161.686h25.27z"/>
  <path fill="url(#aa)" fill-opacity=".02" d="M1041 455.1h-25.26v115.001H1041z"/>
  <path fill="url(#ab)" fill-opacity=".02" d="M1011.13 433.087h-25.27v44.027h25.27z"/>
  <path fill="url(#ac)" fill-opacity=".02" d="M981.251 402.345h-25.267v61.484h25.267z"/>
  <path fill="url(#ad)" fill-opacity=".02" d="M951.38 402.345h-25.268v86.156h25.268z"/>
  <path fill="url(#ae)" fill-opacity=".02" d="M921.504 510.138h-25.268v54.654h25.268z"/>
  <path fill="url(#af)" fill-opacity=".02" d="M891.627 469.146h-25.268v95.646h25.268z"/>
  <path fill="url(#ag)" fill-opacity=".02" d="M861.756 488.501h-25.268v28.468h25.268z"/>
  <path fill="url(#ah)" fill-opacity=".02" d="M831.88 437.831h-25.268v39.283h25.268z"/>
  <path fill="url(#ai)" fill-opacity=".02" d="M802.003 398.549h-25.268v78.565h25.268z"/>
  <path fill="url(#aj)" fill-opacity=".02" d="M772.132 355.282h-25.268v72.872h25.268z"/>
  <path fill="url(#ak)" fill-opacity=".02" d="M742.255 384.887h-25.267v84.259h25.267z"/>
  <path fill="url(#al)" fill-opacity=".02" d="M712.384 323.403h-25.268v104.751h25.268z"/>
  <path fill="url(#am)" fill-opacity=".02" d="M682.508 366.669H657.24v86.82h25.268z"/>
  <path fill="url(#an)" fill-opacity=".02" d="M652.631 469.146h-25.267v47.823h25.267z"/>
  <path fill="url(#ao)" fill-opacity=".02" d="M622.76 418.476h-25.268v70.025h25.268z"/>
  <path fill="url(#ap)" fill-opacity=".02" d="M592.884 441.815h-25.268v122.969h25.268z"/>
  <path fill="url(#aq)" fill-opacity=".02" d="M563.007 498.751H537.74v186.727h25.267z"/>
  <path fill="url(#ar)" fill-opacity=".02" d="M533.136 668.405h-25.268v261.881h25.268z"/>
  <path fill="url(#as)" fill-opacity=".02" d="M503.26 864.245h-25.268v104.751h25.268z"/>
  <path fill="url(#at)" fill-opacity=".02" d="M473.383 795.923h-25.268v122.968h25.268z"/>
  <path fill="url(#au)" fill-opacity=".02" d="M443.512 715.083h-25.268V827.81h25.268z"/>
  <path fill="url(#av)" fill-opacity=".02" d="M413.636 734.438h-25.268v122.969h25.268z"/>
  <path fill="url(#aw)" fill-opacity=".02" d="M383.759 646.768h-25.268v53.893h25.268z"/>
  <path fill="url(#ax)" fill-opacity=".02" d="M353.888 668.405H328.62v115.001h25.268z"/>
  <path fill="url(#ay)" fill-opacity=".02" d="M324.011 787.955h-25.267v51.234h25.267z"/>
  <path fill="url(#az)" fill-opacity=".02" d="M294.135 815.278h-25.268v97.92h25.268z"/>
  <path fill="url(#aA)" fill-opacity=".02" d="M264.264 846.02h-25.268v145.743h25.268z"/>
  <path fill="url(#aB)" fill-opacity=".02" d="M234.387 958.746H209.12v94.124h25.267z"/>
  <path fill="url(#aC)" fill-opacity=".02" d="M204.511 1017.96h-25.268v34.92h25.268z"/>
  <path fill="url(#aD)" fill-opacity=".02" d="M174.64 913.205h-25.268v209.505h25.268z"/>
  <path fill="url(#aE)" fill-opacity=".02" d="M144.763 934.458h-25.268v71.352h25.268z"/>
  <path fill="url(#aF)" fill-opacity=".02" d="M114.887 958.746H89.619v142.704h25.268z"/>
  <path fill="url(#aG)" fill-opacity=".02" d="M85.016 1005.81H59.748v144.22h25.268z"/>
  <path fill="url(#aH)" fill-opacity=".02" d="M55.144 934.458H29.876v94.122h25.268z"/>
  <defs>
    <radialGradient id="a" cx="0" cy="0" r="1" gradientTransform="matrix(0 681.818 -640 0 640 681.818)" gradientUnits="userSpaceOnUse">
      <stop/>
      <stop offset="1" stop-opacity="0"/>
    </radialGradient>
    <radialGradient id="b" cx="0" cy="0" r="1" gradientTransform="matrix(0 681.818 -640 0 640 681.818)" gradientUnits="userSpaceOnUse">
      <stop/>
      <stop offset="1" stop-opacity="0"/>
    </radialGradient>
    <radialGradient id="c" cx="0" cy="0" r="1" gradientTransform="matrix(0 681.818 -640 0 640 681.818)" gradientUnits="userSpaceOnUse">
      <stop/>
      <stop offset="1" stop-opacity="0"/>
    </radialGradient>
    <radialGradient id="d" cx="0" cy="0" r="1" gradientTransform="matrix(0 681.818 -640 0 640 681.818)" gradientUnits="userSpaceOnUse">
      <stop/>
      <stop offset="1" stop-opacity="0"/>
    </radialGradient>
    <radialGradient id="e" cx="0" cy="0" r="1" gradientTransform="matrix(0 681.818 -640 0 640 681.818)" gradientUnits="userSpaceOnUse">
      <stop/>
      <stop offset="1" stop-opacity="0"/>
    </radialGradient>
    <radialGradient id="f" cx="0" cy="0" r="1" gradientTransform="matrix(0 681.818 -640 0 640 681.818)" gradientUnits="userSpaceOnUse">
      <stop/>
      <stop offset="1" stop-opacity="0"/>
    </radialGradient>
    <radialGradient id="g" cx="0" cy="0" r="1" gradientTransform="matrix(0 681.818 -640 0 640 681.818)" gradientUnits="userSpaceOnUse">
      <stop/>
      <stop offset="1" stop-opacity="0"/>
    </radialGradient>
    <radialGradient id="h" cx="0" cy="0" r="1" gradientTransform="matrix(0 681.818 -640 0 640 681.818)" gradientUnits="userSpaceOnUse">
      <stop/>
      <stop offset="1" stop-opacity="0"/>
    </radialGradient>
    <radialGradient id="i" cx="0" cy="0" r="1" gradientTransform="matrix(0 681.818 -640 0 640 681.818)" gradientUnits="userSpaceOnUse">
      <stop/>
      <stop offset="1" stop-opacity="0"/>
    </radialGradient>
    <radialGradient id="j" cx="0" cy="0" r="1" gradientTransform="matrix(0 681.818 -640 0 640 681.818)" gradientUnits="userSpaceOnUse">
      <stop/>
      <stop offset="1" stop-opacity="0"/>
    </radialGradient>
    <radialGradient id="k" cx="0" cy="0" r="1" gradientTransform="matrix(0 681.818 -640 0 640 681.818)" gradientUnits="userSpaceOnUse">
      <stop/>
      <stop offset="1" stop-opacity="0"/>
    </radialGradient>
    <radialGradient id="l" cx="0" cy="0" r="1" gradientTransform="matrix(0 681.818 -640 0 640 681.818)" gradientUnits="userSpaceOnUse">
      <stop/>
      <stop offset="1" stop-opacity="0"/>
    </radialGradient>
    <radialGradient id="m" cx="0" cy="0" r="1" gradientTransform="matrix(0 681.818 -640 0 640 681.818)" gradientUnits="userSpaceOnUse">
      <stop/>
      <stop offset="1" stop-opacity="0"/>
    </radialGradient>
    <radialGradient id="n" cx="0" cy="0" r="1" gradientTransform="matrix(0 681.818 -640 0 640 681.818)" gradientUnits="userSpaceOnUse">
      <stop/>
      <stop offset="1" stop-opacity="0"/>
    </radialGradient>
    <radialGradient id="o" cx="0" cy="0" r="1" gradientTransform="matrix(0 681.818 -640 0 640 681.818)" gradientUnits="userSpaceOnUse">
      <stop/>
      <stop offset="1" stop-opacity="0"/>
    </radialGradient>
    <radialGradient id="p" cx="0" cy="0" r="1" gradientTransform="matrix(0 681.818 -640 0 640 681.818)" gradientUnits="userSpaceOnUse">
      <stop/>
      <stop offset="1" stop-opacity="0"/>
    </radialGradient>
    <radialGradient id="q" cx="0" cy="0" r="1" gradientTransform="matrix(0 681.818 -640 0 640 681.818)" gradientUnits="userSpaceOnUse">
      <stop/>
      <stop offset="1" stop-opacity="0"/>
    </radialGradient>
    <radialGradient id="r" cx="0" cy="0" r="1" gradientTransform="matrix(0 681.818 -640 0 640 681.818)" gradientUnits="userSpaceOnUse">
      <stop/>
      <stop offset="1" stop-opacity="0"/>
    </radialGradient>
    <radialGradient id="s" cx="0" cy="0" r="1" gradientTransform="matrix(0 681.818 -640 0 640 681.818)" gradientUnits="userSpaceOnUse">
      <stop/>
      <stop offset="1" stop-opacity="0"/>
    </radialGradient>
    <radialGradient id="t" cx="0" cy="0" r="1" gradientTransform="matrix(0 681.818 -640 0 640 681.818)" gradientUnits="userSpaceOnUse">
      <stop/>
      <stop offset="1" stop-opacity="0"/>
    </radialGradient>
    <radialGradient id="u" cx="0" cy="0" r="1" gradientTransform="matrix(0 681.818 -640 0 640 681.818)" gradientUnits="userSpaceOnUse">
      <stop/>
      <stop offset="1" stop-opacity="0"/>
    </radialGradient>
    <radialGradient id="v" cx="0" cy="0" r="1" gradientTransform="matrix(0 681.818 -640 0 640 681.818)" gradientUnits="userSpaceOnUse">
      <stop/>
      <stop offset="1" stop-opacity="0"/>
    </radialGradient>
    <radialGradient id="w" cx="0" cy="0" r="1" gradientTransform="matrix(0 681.818 -640 0 640 681.818)" gradientUnits="userSpaceOnUse">
      <stop/>
      <stop offset="1" stop-opacity="0"/>
    </radialGradient>
    <radialGradient id="x" cx="0" cy="0" r="1" gradientTransform="matrix(0 681.818 -640 0 640 681.818)" gradientUnits="userSpaceOnUse">
      <stop/>
      <stop offset="1" stop-opacity="0"/>
    </radialGradient>
    <radialGradient id="y" cx="0" cy="0" r="1" gradientTransform="matrix(0 681.818 -640 0 640 681.818)" gradientUnits="userSpaceOnUse">
      <stop/>
      <stop offset="1" stop-opacity="0"/>
    </radialGradient>
    <radialGradient id="z" cx="0" cy="0" r="1" gradientTransform="matrix(0 681.818 -640 0 640 681.818)" gradientUnits="userSpaceOnUse">
      <stop/>
      <stop offset="1" stop-opacity="0"/>
    </radialGradient>
    <radialGradient id="A" cx="0" cy="0" r="1" gradientTransform="matrix(0 681.818 -640 0 640 681.818)" gradientUnits="userSpaceOnUse">
      <stop/>
      <stop offset="1" stop-opacity="0"/>
    </radialGradient>
    <radialGradient id="B" cx="0" cy="0" r="1" gradientTransform="matrix(0 681.818 -640 0 640 681.818)" gradientUnits="userSpaceOnUse">
      <stop/>
      <stop offset="1" stop-opacity="0"/>
    </radialGradient>
    <radialGradient id="C" cx="0" cy="0" r="1" gradientTransform="matrix(0 681.818 -640 0 640 681.818)" gradientUnits="userSpaceOnUse">
      <stop/>
      <stop offset="1" stop-opacity="0"/>
    </radialGradient>
    <radialGradient id="D" cx="0" cy="0" r="1" gradientTransform="matrix(0 681.818 -640 0 640 681.818)" gradientUnits="userSpaceOnUse">
      <stop/>
      <stop offset="1" stop-opacity="0"/>
    </radialGradient>
    <radialGradient id="E" cx="0" cy="0" r="1" gradientTransform="matrix(0 681.818 -640 0 640 681.818)" gradientUnits="userSpaceOnUse">
      <stop/>
      <stop offset="1" stop-opacity="0"/>
    </radialGradient>
    <radialGradient id="F" cx="0" cy="0" r="1" gradientTransform="matrix(0 681.818 -640 0 640 681.818)" gradientUnits="userSpaceOnUse">
      <stop/>
      <stop offset="1" stop-opacity="0"/>
    </radialGradient>
    <radialGradient id="G" cx="0" cy="0" r="1" gradientTransform="matrix(0 681.818 -640 0 640 681.818)" gradientUnits="userSpaceOnUse">
      <stop/>
      <stop offset="1" stop-opacity="0"/>
    </radialGradient>
    <radialGradient id="H" cx="0" cy="0" r="1" gradientTransform="matrix(0 681.818 -640 0 640 681.818)" gradientUnits="userSpaceOnUse">
      <stop/>
      <stop offset="1" stop-opacity="0"/>
    </radialGradient>
    <radialGradient id="I" cx="0" cy="0" r="1" gradientTransform="matrix(0 681.818 -640 0 640 681.818)" gradientUnits="userSpaceOnUse">
      <stop/>
      <stop offset="1" stop-opacity="0"/>
    </radialGradient>
    <radialGradient id="J" cx="0" cy="0" r="1" gradientTransform="matrix(0 681.818 -640 0 640 681.818)" gradientUnits="userSpaceOnUse">
      <stop/>
      <stop offset="1" stop-opacity="0"/>
    </radialGradient>
    <radialGradient id="K" cx="0" cy="0" r="1" gradientTransform="matrix(0 681.818 -640 0 640 681.818)" gradientUnits="userSpaceOnUse">
      <stop/>
      <stop offset="1" stop-opacity="0"/>
    </radialGradient>
    <radialGradient id="L" cx="0" cy="0" r="1" gradientTransform="matrix(0 681.818 -640 0 640 681.818)" gradientUnits="userSpaceOnUse">
      <stop/>
      <stop offset="1" stop-opacity="0"/>
    </radialGradient>
    <radialGradient id="M" cx="0" cy="0" r="1" gradientTransform="matrix(0 681.818 -640 0 640 681.818)" gradientUnits="userSpaceOnUse">
      <stop/>
      <stop offset="1" stop-opacity="0"/>
    </radialGradient>
    <radialGradient id="N" cx="0" cy="0" r="1" gradientTransform="matrix(0 681.818 -640 0 640 681.818)" gradientUnits="userSpaceOnUse">
      <stop/>
      <stop offset="1" stop-opacity="0"/>
    </radialGradient>
    <radialGradient id="O" cx="0" cy="0" r="1" gradientTransform="matrix(0 681.818 -640 0 640 681.818)" gradientUnits="userSpaceOnUse">
      <stop/>
      <stop offset="1" stop-opacity="0"/>
    </radialGradient>
    <radialGradient id="P" cx="0" cy="0" r="1" gradientTransform="matrix(0 681.818 -640 0 640 681.818)" gradientUnits="userSpaceOnUse">
      <stop/>
      <stop offset="1" stop-opacity="0"/>
    </radialGradient>
    <radialGradient id="Q" cx="0" cy="0" r="1" gradientTransform="matrix(0 681.818 -640 0 640 681.818)" gradientUnits="userSpaceOnUse">
      <stop/>
      <stop offset="1" stop-opacity="0"/>
    </radialGradient>
    <radialGradient id="R" cx="0" cy="0" r="1" gradientTransform="matrix(0 681.818 -640 0 640 681.818)" gradientUnits="userSpaceOnUse">
      <stop/>
      <stop offset="1" stop-opacity="0"/>
    </radialGradient>
    <radialGradient id="S" cx="0" cy="0" r="1" gradientTransform="matrix(0 681.818 -640 0 640 681.818)" gradientUnits="userSpaceOnUse">
      <stop/>
      <stop offset="1" stop-opacity="0"/>
    </radialGradient>
    <radialGradient id="T" cx="0" cy="0" r="1" gradientTransform="matrix(0 681.818 -640 0 640 681.818)" gradientUnits="userSpaceOnUse">
      <stop/>
      <stop offset="1" stop-opacity="0"/>
    </radialGradient>
    <radialGradient id="U" cx="0" cy="0" r="1" gradientTransform="matrix(0 681.818 -640 0 640 681.818)" gradientUnits="userSpaceOnUse">
      <stop/>
      <stop offset="1" stop-opacity="0"/>
    </radialGradient>
    <radialGradient id="V" cx="0" cy="0" r="1" gradientTransform="matrix(0 681.818 -640 0 640 681.818)" gradientUnits="userSpaceOnUse">
      <stop/>
      <stop offset="1" stop-opacity="0"/>
    </radialGradient>
    <radialGradient id="W" cx="0" cy="0" r="1" gradientTransform="matrix(0 681.818 -640 0 640 681.818)" gradientUnits="userSpaceOnUse">
      <stop/>
      <stop offset="1" stop-opacity="0"/>
    </radialGradient>
    <radialGradient id="X" cx="0" cy="0" r="1" gradientTransform="matrix(0 681.818 -640 0 640 681.818)" gradientUnits="userSpaceOnUse">
      <stop/>
      <stop offset="1" stop-opacity="0"/>
    </radialGradient>
    <radialGradient id="Y" cx="0" cy="0" r="1" gradientTransform="matrix(0 681.818 -640 0 640 681.818)" gradientUnits="userSpaceOnUse">
      <stop/>
      <stop offset="1" stop-opacity="0"/>
    </radialGradient>
    <radialGradient id="Z" cx="0" cy="0" r="1" gradientTransform="matrix(0 681.818 -640 0 640 681.818)" gradientUnits="userSpaceOnUse">
      <stop/>
      <stop offset="1" stop-opacity="0"/>
    </radialGradient>
    <radialGradient id="aa" cx="0" cy="0" r="1" gradientTransform="matrix(0 681.818 -640 0 640 681.818)" gradientUnits="userSpaceOnUse">
      <stop/>
      <stop offset="1" stop-opacity="0"/>
    </radialGradient>
    <radialGradient id="ab" cx="0" cy="0" r="1" gradientTransform="matrix(0 681.818 -640 0 640 681.818)" gradientUnits="userSpaceOnUse">
      <stop/>
      <stop offset="1" stop-opacity="0"/>
    </radialGradient>
    <radialGradient id="ac" cx="0" cy="0" r="1" gradientTransform="matrix(0 681.818 -640 0 640 681.818)" gradientUnits="userSpaceOnUse">
      <stop/>
      <stop offset="1" stop-opacity="0"/>
    </radialGradient>
    <radialGradient id="ad" cx="0" cy="0" r="1" gradientTransform="matrix(0 681.818 -640 0 640 681.818)" gradientUnits="userSpaceOnUse">
      <stop/>
      <stop offset="1" stop-opacity="0"/>
    </radialGradient>
    <radialGradient id="ae" cx="0" cy="0" r="1" gradientTransform="matrix(0 681.818 -640 0 640 681.818)" gradientUnits="userSpaceOnUse">
      <stop/>
      <stop offset="1" stop-opacity="0"/>
    </radialGradient>
    <radialGradient id="af" cx="0" cy="0" r="1" gradientTransform="matrix(0 681.818 -640 0 640 681.818)" gradientUnits="userSpaceOnUse">
      <stop/>
      <stop offset="1" stop-opacity="0"/>
    </radialGradient>
    <radialGradient id="ag" cx="0" cy="0" r="1" gradientTransform="matrix(0 681.818 -640 0 640 681.818)" gradientUnits="userSpaceOnUse">
      <stop/>
      <stop offset="1" stop-opacity="0"/>
    </radialGradient>
    <radialGradient id="ah" cx="0" cy="0" r="1" gradientTransform="matrix(0 681.818 -640 0 640 681.818)" gradientUnits="userSpaceOnUse">
      <stop/>
      <stop offset="1" stop-opacity="0"/>
    </radialGradient>
    <radialGradient id="ai" cx="0" cy="0" r="1" gradientTransform="matrix(0 681.818 -640 0 640 681.818)" gradientUnits="userSpaceOnUse">
      <stop/>
      <stop offset="1" stop-opacity="0"/>
    </radialGradient>
    <radialGradient id="aj" cx="0" cy="0" r="1" gradientTransform="matrix(0 681.818 -640 0 640 681.818)" gradientUnits="userSpaceOnUse">
      <stop/>
      <stop offset="1" stop-opacity="0"/>
    </radialGradient>
    <radialGradient id="ak" cx="0" cy="0" r="1" gradientTransform="matrix(0 681.818 -640 0 640 681.818)" gradientUnits="userSpaceOnUse">
      <stop/>
      <stop offset="1" stop-opacity="0"/>
    </radialGradient>
    <radialGradient id="al" cx="0" cy="0" r="1" gradientTransform="matrix(0 681.818 -640 0 640 681.818)" gradientUnits="userSpaceOnUse">
      <stop/>
      <stop offset="1" stop-opacity="0"/>
    </radialGradient>
    <radialGradient id="am" cx="0" cy="0" r="1" gradientTransform="matrix(0 681.818 -640 0 640 681.818)" gradientUnits="userSpaceOnUse">
      <stop/>
      <stop offset="1" stop-opacity="0"/>
    </radialGradient>
    <radialGradient id="an" cx="0" cy="0" r="1" gradientTransform="matrix(0 681.818 -640 0 640 681.818)" gradientUnits="userSpaceOnUse">
      <stop/>
      <stop offset="1" stop-opacity="0"/>
    </radialGradient>
    <radialGradient id="ao" cx="0" cy="0" r="1" gradientTransform="matrix(0 681.818 -640 0 640 681.818)" gradientUnits="userSpaceOnUse">
      <stop/>
      <stop offset="1" stop-opacity="0"/>
    </radialGradient>
    <radialGradient id="ap" cx="0" cy="0" r="1" gradientTransform="matrix(0 681.818 -640 0 640 681.818)" gradientUnits="userSpaceOnUse">
      <stop/>
      <stop offset="1" stop-opacity="0"/>
    </radialGradient>
    <radialGradient id="aq" cx="0" cy="0" r="1" gradientTransform="matrix(0 681.818 -640 0 640 681.818)" gradientUnits="userSpaceOnUse">
      <stop/>
      <stop offset="1" stop-opacity="0"/>
    </radialGradient>
    <radialGradient id="ar" cx="0" cy="0" r="1" gradientTransform="matrix(0 681.818 -640 0 640 681.818)" gradientUnits="userSpaceOnUse">
      <stop/>
      <stop offset="1" stop-opacity="0"/>
    </radialGradient>
    <radialGradient id="as" cx="0" cy="0" r="1" gradientTransform="matrix(0 681.818 -640 0 640 681.818)" gradientUnits="userSpaceOnUse">
      <stop/>
      <stop offset="1" stop-opacity="0"/>
    </radialGradient>
    <radialGradient id="at" cx="0" cy="0" r="1" gradientTransform="matrix(0 681.818 -640 0 640 681.818)" gradientUnits="userSpaceOnUse">
      <stop/>
      <stop offset="1" stop-opacity="0"/>
    </radialGradient>
    <radialGradient id="au" cx="0" cy="0" r="1" gradientTransform="matrix(0 681.818 -640 0 640 681.818)" gradientUnits="userSpaceOnUse">
      <stop/>
      <stop offset="1" stop-opacity="0"/>
    </radialGradient>
    <radialGradient id="av" cx="0" cy="0" r="1" gradientTransform="matrix(0 681.818 -640 0 640 681.818)" gradientUnits="userSpaceOnUse">
      <stop/>
      <stop offset="1" stop-opacity="0"/>
    </radialGradient>
    <radialGradient id="aw" cx="0" cy="0" r="1" gradientTransform="matrix(0 681.818 -640 0 640 681.818)" gradientUnits="userSpaceOnUse">
      <stop/>
      <stop offset="1" stop-opacity="0"/>
    </radialGradient>
    <radialGradient id="ax" cx="0" cy="0" r="1" gradientTransform="matrix(0 681.818 -640 0 640 681.818)" gradientUnits="userSpaceOnUse">
      <stop/>
      <stop offset="1" stop-opacity="0"/>
    </radialGradient>
    <radialGradient id="ay" cx="0" cy="0" r="1" gradientTransform="matrix(0 681.818 -640 0 640 681.818)" gradientUnits="userSpaceOnUse">
      <stop/>
      <stop offset="1" stop-opacity="0"/>
    </radialGradient>
    <radialGradient id="az" cx="0" cy="0" r="1" gradientTransform="matrix(0 681.818 -640 0 640 681.818)" gradientUnits="userSpaceOnUse">
      <stop/>
      <stop offset="1" stop-opacity="0"/>
    </radialGradient>
    <radialGradient id="aA" cx="0" cy="0" r="1" gradientTransform="matrix(0 681.818 -640 0 640 681.818)" gradientUnits="userSpaceOnUse">
      <stop/>
      <stop offset="1" stop-opacity="0"/>
    </radialGradient>
    <radialGradient id="aB" cx="0" cy="0" r="1" gradientTransform="matrix(0 681.818 -640 0 640 681.818)" gradientUnits="userSpaceOnUse">
      <stop/>
      <stop offset="1" stop-opacity="0"/>
    </radialGradient>
    <radialGradient id="aC" cx="0" cy="0" r="1" gradientTransform="matrix(0 681.818 -640 0 640 681.818)" gradientUnits="userSpaceOnUse">
      <stop/>
      <stop offset="1" stop-opacity="0"/>
    </radialGradient>
    <radialGradient id="aD" cx="0" cy="0" r="1" gradientTransform="matrix(0 681.818 -640 0 640 681.818)" gradientUnits="userSpaceOnUse">
      <stop/>
      <stop offset="1" stop-opacity="0"/>
    </radialGradient>
    <radialGradient id="aE" cx="0" cy="0" r="1" gradientTransform="matrix(0 681.818 -640 0 640 681.818)" gradientUnits="userSpaceOnUse">
      <stop/>
      <stop offset="1" stop-opacity="0"/>
    </radialGradient>
    <radialGradient id="aF" cx="0" cy="0" r="1" gradientTransform="matrix(0 681.818 -640 0 640 681.818)" gradientUnits="userSpaceOnUse">
      <stop/>
      <stop offset="1" stop-opacity="0"/>
    </radialGradient>
    <radialGradient id="aG" cx="0" cy="0" r="1" gradientTransform="matrix(0 681.818 -640 0 640 681.818)" gradientUnits="userSpaceOnUse">
      <stop/>
      <stop offset="1" stop-opacity="0"/>
    </radialGradient>
    <radialGradient id="aH" cx="0" cy="0" r="1" gradientTransform="matrix(0 681.818 -640 0 640 681.818)" gradientUnits="userSpaceOnUse">
      <stop/>
      <stop offset="1" stop-opacity="0"/>
    </radialGradient>
  </defs>
</svg>
